P3
# Sample 8x8 color pattern
8 8
255
0 0 0 32 0 0 64 0 0 96 0 0 128 0 0 160 0 0 192 0 0 224 0 0
0 0 0 0 32 0 0 64 0 0 96 0 0 128 0 0 160 0 0 192 0 0 224 0
0 0 0 0 0 32 0 0 64 0 0 96 0 0 128 0 0 160 0 0 192 0 0 224
0 0 0 32 32 0 64 64 0 96 96 0 128 128 0 160 160 0 192 192 0 224 224 0
0 0 0 0 32 32 0 64 64 0 96 96 0 128 128 0 160 160 0 192 192 0 224 224
0 0 0 32 0 32 64 0 64 96 0 96 128 0 128 160 0 160 192 0 192 224 0 224
0 0 0 32 32 32 64 64 64 96 96 96 128 128 128 160 160 160 192 192 192 224 224 224
0 255 128 32 223 128 64 191 128 96 159 128 128 127 128 160 95 128 192 63 128 224 31 128
